{
  "asset": {
    "version": "2.0",
    "generator": "THREE.GLTFExporter"
  },
  "scenes": [
    {
      "name": "Scene",
      "nodes": [
        3
      ]
    }
  ],
  "scene": 0,
  "nodes": [
    {
      "matrix": [
        -0.4708327246262465,
        -0.8822225033522014,
        1.9589274721281167e-16,
        0,
        0.8822225033522014,
        -0.4708327246262465,
        3.2659047125044227e-16,
        0,
        -1.9589274721281167e-16,
        3.2659047125044227e-16,
        1,
        0,
        -47.234829275926955,
        167.6302768482105,
        2.577472231640447,
        1
      ],
      "name": "Object_2",
      "extras": {
        "name": "Object_2"
      },
      "mesh": 0
    },
    {
      "name": "Geode",
      "extras": {
        "name": "Geode"
      },
      "children": [
        0
      ]
    },
    {
      "matrix": [
        0.012779689393937588,
        0,
        0,
        0,
        0,
        2.8376610825414845e-18,
        -0.012779689393937588,
        0,
        0,
        0.012779689393937588,
        2.8376610825414845e-18,
        0,
        0,
        0,
        0,
        1
      ],
      "name": "Sketchfab_model",
      "extras": {
        "name": "Sketchfab_model"
      },
      "children": [
        1
      ]
    },
    {
      "name": "need_some_space.glb",
      "children": [
        2
      ]
    }
  ],
  "bufferViews": [
    {
      "buffer": 0,
      "byteOffset": 0,
      "byteLength": 800000,
      "target": 34962,
      "byteStride": 16
    },
    {
      "buffer": 0,
      "byteOffset": 800000,
      "byteLength": 600000,
      "target": 34962,
      "byteStride": 12
    }
  ],
  "buffers": [
    {
      "byteLength": 1400000,
      "uri": "data:application/octet-stream;base64,"
    }
  ],
  "accessors": [
    {
      "bufferView": 0,
      "componentType": 5126,
      "count": 50000,
      "max": [
        1,
        1,
        1,
        1
      ],
      "min": [
        0.6745098233222961,
        0,
        0,
        1
      ],
      "type": "VEC4"
    },
    {
      "bufferView": 1,
      "componentType": 5126,
      "count": 50000,
      "max": [
        288.8330078125,
        313.2330017089844,
        225.4040069580078
      ],
      "min": [
        -58.488800048828125,
        -81.83899688720703,
        -15.739500045776367
      ],
      "type": "VEC3"
    }
  ],
  "materials": [
    {
      "pbrMetallicRoughness": {
        "metallicFactor": 0.5,
        "roughnessFactor": 0.5
      },
      "doubleSided": true,
      "name": "Scene_-_Root"
    }
  ],
  "meshes": [
    {
      "primitives": [
        {
          "mode": 0,
          "attributes": {
            "COLOR_0": 0,
            "POSITION": 1
          },
          "material": 0
        }
      ]
    }
  ]
}